<?xml version="1.0" encoding="UTF-8"?>
<svg xmlns="http://www.w3.org/2000/svg"
     viewBox="0 0 600 800"
     width="600"
     height="800">
  <title>Merlion Silhouette</title>
  <desc>Outline silhouette of the Merlion, extracted from geometric collage. Use as puzzle board boundary or clipPath.</desc>

  <!-- Merlion silhouette outline — 318 path points -->
  <!-- Source: #1 Merlion.png (1024x1024px) -->
  <path
    id="merlion-silhouette"
    d="M 451.06,123.52 L 422.68,122.61 L 421.76,121.69 L 416.27,121.69 L 415.35,120.77 L 402.54,118.94 L 360.42,104.3 L 357.68,104.3 L 351.27,101.55 L 348.52,101.55 L 336.62,97.89 L 324.72,96.97 L 323.8,96.06 L 318.31,96.06 L 317.39,95.14 L 282.61,95.14 L 281.69,96.06 L 267.04,97.89 L 263.38,99.72 L 255.14,101.55 L 236.83,110.7 L 230.42,115.28 L 219.44,126.27 L 212.11,139.08 L 208.45,142.75 L 203.87,142.75 L 198.38,144.58 L 191.97,144.58 L 186.48,146.41 L 180.99,146.41 L 170.92,149.15 L 166.34,149.15 L 162.68,150.99 L 158.1,150.99 L 154.44,152.82 L 151.69,152.82 L 139.79,156.48 L 133.38,159.23 L 130.63,161.97 L 130.63,168.38 L 135.21,178.45 L 136.13,183.03 L 132.46,186.69 L 128.8,188.52 L 128.8,198.59 L 132.46,206.83 L 141.62,218.73 L 145.28,220.56 L 148.94,219.65 L 150.77,216.9 L 150.77,215.07 L 153.52,212.32 L 161.76,215.99 L 164.51,215.99 L 183.73,221.48 L 190.14,225.14 L 194.72,231.55 L 194.72,236.13 L 192.89,239.79 L 185.56,247.11 L 175.49,252.61 L 148.03,261.76 L 142.54,264.51 L 139.79,268.17 L 139.79,273.66 L 141.62,279.15 L 146.2,287.39 L 155.35,298.38 L 162.68,302.96 L 169.08,302.96 L 172.75,301.13 L 177.32,296.55 L 186.48,290.14 L 233.17,274.58 L 260.63,261.76 L 275.28,251.69 L 285.35,241.62 L 290.85,234.3 L 297.25,221.48 L 299.08,219.65 L 300.92,221.48 L 298.17,230.63 L 289.93,244.37 L 276.2,257.18 L 257.89,268.17 L 222.18,286.48 L 213.03,291.97 L 205.7,298.38 L 194.72,302.96 L 192.89,304.79 L 172.75,314.86 L 166.34,319.44 L 145.28,330.42 L 111.41,352.39 L 102.25,356.97 L 102.25,359.72 L 104.08,361.55 L 107.75,362.46 L 117.82,367.96 L 122.39,368.87 L 124.23,370.7 L 122.39,372.54 L 114.15,373.45 L 109.58,376.2 L 109.58,378.03 L 112.32,380.77 L 116.9,389.01 L 119.65,397.25 L 121.48,410.07 L 122.39,410.99 L 122.39,416.48 L 123.31,417.39 L 123.31,438.45 L 122.39,439.37 L 122.39,444.86 L 121.48,445.77 L 120.56,452.18 L 115.99,465.0 L 110.49,473.24 L 110.49,475.07 L 89.44,491.55 L 74.79,506.2 L 62.89,520.85 L 56.48,530.92 L 50.07,543.73 L 44.58,559.3 L 42.75,570.28 L 41.83,571.2 L 41.83,575.77 L 40.92,576.69 L 40.92,587.68 L 40.0,588.59 L 41.83,612.39 L 47.32,631.62 L 52.82,642.61 L 61.97,655.42 L 72.04,665.49 L 80.28,671.9 L 93.1,680.14 L 117.82,691.13 L 137.04,696.62 L 162.68,700.28 L 163.59,701.2 L 173.66,701.2 L 174.58,702.11 L 215.77,702.11 L 216.69,701.2 L 224.01,701.2 L 224.93,700.28 L 230.42,700.28 L 232.25,699.37 L 233.17,700.28 L 237.75,700.28 L 238.66,701.2 L 243.24,701.2 L 249.65,703.03 L 273.45,703.94 L 274.37,704.86 L 304.58,704.86 L 305.49,703.94 L 325.63,703.03 L 326.55,702.11 L 332.04,702.11 L 332.96,701.2 L 348.52,699.37 L 349.44,698.45 L 363.17,695.7 L 369.58,692.96 L 372.32,692.96 L 386.97,687.46 L 401.62,680.14 L 419.01,669.15 L 432.75,658.17 L 443.73,647.18 L 455.63,632.54 L 467.54,612.39 L 467.54,610.56 L 473.94,597.75 L 474.86,592.25 L 476.69,589.51 L 476.69,586.76 L 478.52,584.01 L 482.18,563.87 L 483.1,562.96 L 484.01,548.31 L 484.93,547.39 L 484.93,525.42 L 484.01,523.59 L 486.76,520.85 L 491.34,519.01 L 499.58,513.52 L 512.39,499.79 L 520.63,486.06 L 520.63,484.23 L 525.21,475.99 L 530.7,458.59 L 538.03,443.03 L 550.85,430.21 L 560.0,422.89 L 560.0,420.14 L 546.27,412.82 L 534.37,409.15 L 524.3,408.24 L 523.38,407.32 L 504.15,408.24 L 503.24,409.15 L 495.92,410.07 L 478.52,416.48 L 465.7,425.63 L 455.63,435.7 L 446.48,440.28 L 442.82,437.54 L 438.24,429.3 L 427.25,421.06 L 410.77,413.73 L 399.79,411.9 L 398.87,410.99 L 393.38,410.99 L 392.46,410.07 L 367.75,410.07 L 366.83,410.99 L 360.42,410.99 L 354.93,413.73 L 354.93,416.48 L 359.51,423.8 L 359.51,425.63 L 361.34,427.46 L 367.75,441.2 L 369.58,443.03 L 372.32,450.35 L 374.15,452.18 L 380.56,465.92 L 382.39,467.75 L 385.14,475.07 L 387.89,478.73 L 394.3,492.46 L 396.13,494.3 L 405.28,513.52 L 407.11,515.35 L 405.28,525.42 L 398.87,540.99 L 385.14,555.63 L 375.07,561.13 L 373.24,559.3 L 377.82,543.73 L 378.73,530.0 L 379.65,529.08 L 379.65,514.44 L 378.73,513.52 L 378.73,507.11 L 377.82,506.2 L 376.9,497.04 L 375.07,492.46 L 375.07,486.97 L 368.66,473.24 L 368.66,471.41 L 365.0,465.0 L 360.42,452.18 L 358.59,450.35 L 354.01,438.45 L 348.52,428.38 L 348.52,426.55 L 346.69,424.72 L 346.69,422.89 L 338.45,408.24 L 338.45,406.41 L 340.28,404.58 L 355.85,401.83 L 356.76,400.92 L 361.34,400.92 L 362.25,400.0 L 368.66,400.0 L 369.58,399.08 L 399.79,399.08 L 400.7,400.0 L 406.2,400.0 L 407.11,400.92 L 415.35,401.83 L 426.34,405.49 L 440.99,413.73 L 442.82,412.82 L 442.82,408.24 L 427.25,350.56 L 429.08,348.73 L 434.58,348.73 L 435.49,349.65 L 440.99,349.65 L 441.9,350.56 L 458.38,350.56 L 459.3,351.48 L 465.7,351.48 L 468.45,349.65 L 467.54,334.08 L 466.62,333.17 L 463.87,309.37 L 462.04,304.79 L 462.04,300.21 L 457.46,282.82 L 457.46,279.15 L 456.55,278.24 L 456.55,274.58 L 455.63,273.66 L 455.63,270.0 L 453.8,265.42 L 451.06,249.86 L 452.89,248.03 L 486.76,239.79 L 486.76,236.13 L 451.97,183.94 L 441.9,173.87 L 419.93,157.39 L 421.76,155.56 L 429.08,153.73 L 436.41,150.07 L 444.65,143.66 L 451.06,136.34 L 453.8,130.85 L 453.8,125.35 Z"
    fill="#F0F4F8"
    fill-opacity="0.4"
    stroke="#2C3E50"
    stroke-width="3"
    stroke-linejoin="round"
    stroke-linecap="round"
  />
</svg>
